<svg xmlns="http://www.w3.org/2000/svg" width="1620" height="2160" viewBox="0 0 1620 2160">
<rect width="1620" height="2160" fill="#f1e8d5"/>
<rect width="1620" height="162" fill="#e5d9c2"/>
<text x="42" y="97" fill="#2f2923" font-family="sans-serif" font-size="44" text-anchor="start">A reading of your reply</text>
<text x="1578" y="94" fill="#2f2923" font-family="sans-serif" font-size="32" text-anchor="end">Chiappa</text>
<rect x="57" y="219" width="1506" height="1668" rx="8" fill="#f6efdf" stroke="#8d7964" stroke-width="3"/>
<g id="stationery-layer">
<rect x="155" y="317" width="1310" height="1472" fill="none" stroke="#a45149" stroke-width="3" opacity="0.62"/>
<path d="M 810 219 V 1887" stroke="#796d5e" stroke-width="2" opacity="0.10"/>
<path d="M 57 1053 H 1563" stroke="#796d5e" stroke-width="2" opacity="0.10"/>
<path d="M 256 317 V 1789" stroke="#a45149" stroke-width="2" opacity="0.24"/>
<path d="M 357 317 V 1789" stroke="#a45149" stroke-width="2" opacity="0.24"/>
<path d="M 457 317 V 1789" stroke="#a45149" stroke-width="2" opacity="0.24"/>
<path d="M 558 317 V 1789" stroke="#a45149" stroke-width="2" opacity="0.24"/>
<path d="M 659 317 V 1789" stroke="#a45149" stroke-width="2" opacity="0.24"/>
<path d="M 760 317 V 1789" stroke="#a45149" stroke-width="2" opacity="0.24"/>
<path d="M 860 317 V 1789" stroke="#a45149" stroke-width="2" opacity="0.24"/>
<path d="M 961 317 V 1789" stroke="#a45149" stroke-width="2" opacity="0.24"/>
<path d="M 1062 317 V 1789" stroke="#a45149" stroke-width="2" opacity="0.24"/>
<path d="M 1163 317 V 1789" stroke="#a45149" stroke-width="2" opacity="0.24"/>
<path d="M 1263 317 V 1789" stroke="#a45149" stroke-width="2" opacity="0.24"/>
<path d="M 1364 317 V 1789" stroke="#a45149" stroke-width="2" opacity="0.24"/>
<path d="M 155 464 H 1465" stroke="#a45149" stroke-width="2" opacity="0.22"/>
<path d="M 155 1642 H 1465" stroke="#a45149" stroke-width="2" opacity="0.22"/>
</g>
<g id="ink-layer" fill="none" stroke="#33475b" stroke-linecap="round">
<path d="M 358 719 L 418 786 L 509 886" stroke-width="5"/>
</g>
<g id="marginalia-layer">
<rect x="976" y="920" width="120" height="67" fill="none" stroke="#74362f" stroke-width="5" stroke-dasharray="10 8"/>
<text x="976" y="906" fill="#2f2923" font-family="sans-serif" font-size="25" text-anchor="start">This character is difficult to read; did you mean 家?</text>
<rect x="238" y="1520" width="934" height="133" fill="none" stroke="#74362f" stroke-width="5" stroke-dasharray="10 8"/>
<text x="238" y="1506" fill="#2f2923" font-family="sans-serif" font-size="25" text-anchor="start">What would you want the reader to know about the distance between you?</text>
</g>
<g id="controls-layer" data-min-touch-target="96">
<rect x="1142" y="2004" width="421" height="96" rx="10" fill="#2f2923" data-touch-target="true"/>
<text x="1352" y="2065" fill="#fffaf0" font-family="sans-serif" font-size="30" text-anchor="middle">Hide notes</text>
<text x="42" y="2064" fill="#2f2923" font-family="sans-serif" font-size="27" text-anchor="start">Heart rate unavailable — reply is still available</text>
</g>
</svg>
