<svg xmlns="http://www.w3.org/2000/svg" width="2160" height="1620" viewBox="0 0 2160 1620">
<rect width="2160" height="1620" fill="#f1e8d5"/>
<rect width="2160" height="122" fill="#e5d9c2"/>
<text x="42" y="77" fill="#2f2923" font-family="sans-serif" font-size="44" text-anchor="start">Your huipi</text>
<text x="2118" y="74" fill="#2f2923" font-family="sans-serif" font-size="32" text-anchor="end">Chiappa</text>
<rect x="57" y="179" width="2046" height="1222" rx="8" fill="#f6efdf" stroke="#8d7964" stroke-width="3"/>
<g id="stationery-layer">
<rect x="136" y="258" width="1888" height="1064" fill="none" stroke="#a45149" stroke-width="3" opacity="0.62"/>
<path d="M 1080 179 V 1401" stroke="#796d5e" stroke-width="2" opacity="0.10"/>
<path d="M 57 790 H 2103" stroke="#796d5e" stroke-width="2" opacity="0.10"/>
<path d="M 281 258 V 1322" stroke="#a45149" stroke-width="2" opacity="0.24"/>
<path d="M 426 258 V 1322" stroke="#a45149" stroke-width="2" opacity="0.24"/>
<path d="M 572 258 V 1322" stroke="#a45149" stroke-width="2" opacity="0.24"/>
<path d="M 717 258 V 1322" stroke="#a45149" stroke-width="2" opacity="0.24"/>
<path d="M 862 258 V 1322" stroke="#a45149" stroke-width="2" opacity="0.24"/>
<path d="M 1007 258 V 1322" stroke="#a45149" stroke-width="2" opacity="0.24"/>
<path d="M 1153 258 V 1322" stroke="#a45149" stroke-width="2" opacity="0.24"/>
<path d="M 1298 258 V 1322" stroke="#a45149" stroke-width="2" opacity="0.24"/>
<path d="M 1443 258 V 1322" stroke="#a45149" stroke-width="2" opacity="0.24"/>
<path d="M 1588 258 V 1322" stroke="#a45149" stroke-width="2" opacity="0.24"/>
<path d="M 1734 258 V 1322" stroke="#a45149" stroke-width="2" opacity="0.24"/>
<path d="M 1879 258 V 1322" stroke="#a45149" stroke-width="2" opacity="0.24"/>
<path d="M 136 364 H 2024" stroke="#a45149" stroke-width="2" opacity="0.22"/>
<path d="M 136 1216 H 2024" stroke="#a45149" stroke-width="2" opacity="0.22"/>
</g>
<g id="ink-layer" fill="none" stroke="#33475b" stroke-linecap="round">
</g>
<g id="marginalia-layer" visibility="hidden"/>
<g id="controls-layer" data-min-touch-target="96">
<rect x="1623" y="1491" width="480" height="96" rx="10" fill="#2f2923" data-touch-target="true"/>
<text x="1863" y="1552" fill="#fffaf0" font-family="sans-serif" font-size="30" text-anchor="middle">Submit huipi</text>
<text x="42" y="1551" fill="#2f2923" font-family="sans-serif" font-size="27" text-anchor="start">Heart rate unavailable — reply is still available</text>
</g>
</svg>
