<svg xmlns="http://www.w3.org/2000/svg" width="2160" height="1620" viewBox="0 0 2160 1620">
<rect width="2160" height="1620" fill="#f1e8d5"/>
<rect width="2160" height="122" fill="#e5d9c2"/>
<text x="42" y="77" fill="#2f2923" font-family="sans-serif" font-size="44" text-anchor="start">A reading of your reply</text>
<text x="2118" y="74" fill="#2f2923" font-family="sans-serif" font-size="32" text-anchor="end">Chiappa</text>
<rect x="57" y="179" width="2046" height="1222" rx="8" fill="#f6efdf" stroke="#8d7964" stroke-width="3"/>
<g id="stationery-layer">
<rect x="136" y="258" width="1888" height="1064" fill="none" stroke="#a45149" stroke-width="3" opacity="0.62"/>
<path d="M 1080 179 V 1401" stroke="#796d5e" stroke-width="2" opacity="0.10"/>
<path d="M 57 790 H 2103" stroke="#796d5e" stroke-width="2" opacity="0.10"/>
<path d="M 281 258 V 1322" stroke="#a45149" stroke-width="2" opacity="0.24"/>
<path d="M 426 258 V 1322" stroke="#a45149" stroke-width="2" opacity="0.24"/>
<path d="M 572 258 V 1322" stroke="#a45149" stroke-width="2" opacity="0.24"/>
<path d="M 717 258 V 1322" stroke="#a45149" stroke-width="2" opacity="0.24"/>
<path d="M 862 258 V 1322" stroke="#a45149" stroke-width="2" opacity="0.24"/>
<path d="M 1007 258 V 1322" stroke="#a45149" stroke-width="2" opacity="0.24"/>
<path d="M 1153 258 V 1322" stroke="#a45149" stroke-width="2" opacity="0.24"/>
<path d="M 1298 258 V 1322" stroke="#a45149" stroke-width="2" opacity="0.24"/>
<path d="M 1443 258 V 1322" stroke="#a45149" stroke-width="2" opacity="0.24"/>
<path d="M 1588 258 V 1322" stroke="#a45149" stroke-width="2" opacity="0.24"/>
<path d="M 1734 258 V 1322" stroke="#a45149" stroke-width="2" opacity="0.24"/>
<path d="M 1879 258 V 1322" stroke="#a45149" stroke-width="2" opacity="0.24"/>
<path d="M 136 364 H 2024" stroke="#a45149" stroke-width="2" opacity="0.22"/>
<path d="M 136 1216 H 2024" stroke="#a45149" stroke-width="2" opacity="0.22"/>
</g>
<g id="ink-layer" fill="none" stroke="#33475b" stroke-linecap="round">
<path d="M 466 546 L 548 594 L 671 668" stroke-width="5"/>
</g>
<g id="marginalia-layer">
<rect x="425" y="472" width="246" height="73" fill="none" stroke="#74362f" stroke-width="5" stroke-dasharray="10 8"/>
<text x="425" y="458" fill="#2f2923" font-family="sans-serif" font-size="25" text-anchor="start">Consider using 您 here to keep the respectful address consistent.</text>
<rect x="1305" y="692" width="164" height="49" fill="none" stroke="#74362f" stroke-width="5" stroke-dasharray="10 8"/>
<text x="1305" y="678" fill="#2f2923" font-family="sans-serif" font-size="25" text-anchor="start">This character is difficult to read; did you mean 家?</text>
<rect x="794" y="888" width="491" height="86" fill="none" stroke="#74362f" stroke-width="5" stroke-dasharray="10 8"/>
<text x="794" y="874" fill="#2f2923" font-family="sans-serif" font-size="25" text-anchor="start">Your acknowledgement of the family's care feels clear and warm.</text>
<rect x="303" y="1132" width="1269" height="98" fill="none" stroke="#74362f" stroke-width="5" stroke-dasharray="10 8"/>
<text x="303" y="1118" fill="#2f2923" font-family="sans-serif" font-size="25" text-anchor="start">What would you want the reader to know about the distance between you?</text>
</g>
<g id="controls-layer" data-min-touch-target="96">
<rect x="1623" y="1491" width="480" height="96" rx="10" fill="#2f2923" data-touch-target="true"/>
<text x="1863" y="1552" fill="#fffaf0" font-family="sans-serif" font-size="30" text-anchor="middle">Hide notes</text>
<text x="42" y="1551" fill="#2f2923" font-family="sans-serif" font-size="27" text-anchor="start">Heart rate unavailable — reply is still available</text>
</g>
</svg>
