<svg xmlns="http://www.w3.org/2000/svg" width="954" height="1696" viewBox="0 0 954 1696">
<rect width="954" height="1696" fill="#f1e8d5"/>
<rect width="954" height="127" fill="#e5d9c2"/>
<text x="42" y="79" fill="#2f2923" font-family="sans-serif" font-size="44" text-anchor="start">Your huipi</text>
<text x="912" y="76" fill="#2f2923" font-family="sans-serif" font-size="32" text-anchor="end">Ferrari</text>
<rect x="33" y="160" width="888" height="1333" rx="8" fill="#f6efdf" stroke="#8d7964" stroke-width="3"/>
<g id="stationery-layer">
<rect x="91" y="218" width="772" height="1217" fill="none" stroke="#a45149" stroke-width="3" opacity="0.62"/>
<path d="M 477 160 V 1493" stroke="#796d5e" stroke-width="2" opacity="0.10"/>
<path d="M 33 826 H 921" stroke="#796d5e" stroke-width="2" opacity="0.10"/>
<path d="M 177 218 V 1435" stroke="#a45149" stroke-width="2" opacity="0.24"/>
<path d="M 263 218 V 1435" stroke="#a45149" stroke-width="2" opacity="0.24"/>
<path d="M 348 218 V 1435" stroke="#a45149" stroke-width="2" opacity="0.24"/>
<path d="M 434 218 V 1435" stroke="#a45149" stroke-width="2" opacity="0.24"/>
<path d="M 520 218 V 1435" stroke="#a45149" stroke-width="2" opacity="0.24"/>
<path d="M 606 218 V 1435" stroke="#a45149" stroke-width="2" opacity="0.24"/>
<path d="M 691 218 V 1435" stroke="#a45149" stroke-width="2" opacity="0.24"/>
<path d="M 777 218 V 1435" stroke="#a45149" stroke-width="2" opacity="0.24"/>
<path d="M 91 340 H 863" stroke="#a45149" stroke-width="2" opacity="0.22"/>
<path d="M 91 1313 H 863" stroke="#a45149" stroke-width="2" opacity="0.22"/>
</g>
<g id="ink-layer" fill="none" stroke="#33475b" stroke-linecap="round">
</g>
<g id="marginalia-layer" visibility="hidden"/>
<g id="controls-layer" data-min-touch-target="96">
<rect x="641" y="1563" width="280" height="96" rx="10" fill="#2f2923" data-touch-target="true"/>
<text x="781" y="1624" fill="#fffaf0" font-family="sans-serif" font-size="30" text-anchor="middle">Submit huipi</text>
<text x="42" y="1623" fill="#2f2923" font-family="sans-serif" font-size="27" text-anchor="start">Heart rate unavailable — reply is still available</text>
</g>
</svg>
